<?xml version="1.0" encoding="utf-8"?>
<!-- Generator: Adobe Illustrator 22.1.0, SVG Export Plug-In . SVG Version: 6.00 Build 0)  -->
<svg version="1.1" id="Layer_1" xmlns:x="&ns_extend;" xmlns:i="&ns_ai;" xmlns:graph="&ns_graphs;"
	 xmlns="http://www.w3.org/2000/svg" xmlns:xlink="http://www.w3.org/1999/xlink" x="0px" y="0px" viewBox="0 0 1000 500"
	 style="enable-background:new 0 0 1000 500;" xml:space="preserve">
<metadata>
	<sfw  xmlns="&ns_sfw;">
		<slices></slices>
		<sliceSourceBounds  bottomLeftOrigin="true" height="177.1" width="807.9" x="96.1" y="-588.5"></sliceSourceBounds>
	</sfw>
</metadata>
<g>
	<g>
		<path d="M900.8,287c-0.9,0-1.6-0.3-2.2-0.9c-0.6-0.6-0.9-1.3-0.9-2.2v-74.4c0-0.9,0.3-1.6,0.9-2.2c0.6-0.6,1.3-0.9,2.2-0.9
			c0.9,0,1.6,0.3,2.2,0.9c0.6,0.6,0.9,1.3,0.9,2.2v74.4c0,0.9-0.3,1.6-0.9,2.2C902.4,286.7,901.6,287,900.8,287z"/>
		<path d="M266.6,206.4c11.1,0,20.6,3.9,28.5,11.8c7.9,7.9,11.8,17.4,11.8,28.5c0,11.1-3.9,20.6-11.8,28.5
			c-7.9,7.9-17.4,11.8-28.5,11.8c-11.1,0-20.6-3.9-28.5-11.8c-7.9-7.9-11.8-17.4-11.8-28.5c0-11.1,3.9-20.6,11.8-28.5
			C246,210.4,255.5,206.4,266.6,206.4z M266.6,280.8c9.4,0,17.4-3.3,24.1-10c6.6-6.7,10-14.7,10-24.1c0-9.4-3.3-17.4-10-24.1
			c-6.7-6.6-14.7-10-24.1-10c-9.4,0-17.4,3.3-24.1,10c-6.6,6.7-10,14.7-10,24.1c0,9.4,3.3,17.4,10,24.1
			C249.2,277.5,257.3,280.8,266.6,280.8z"/>
		<path d="M381,256.8c0,8.3-3,15.4-8.9,21.4c-5.9,5.9-13,8.8-21.4,8.8c-8.3,0-15.4-2.9-21.4-8.8c-5.9-5.9-8.8-13.1-8.8-21.4v-47.3
			c0-0.9,0.3-1.6,0.9-2.2c0.6-0.6,1.3-0.9,2.2-0.9c0.9,0,1.6,0.3,2.2,0.9c0.6,0.6,0.9,1.3,0.9,2.2v47.3c0,6.6,2.3,12.3,7,17
			c4.7,4.7,10.3,7,17,7c6.6,0,12.3-2.3,17-7c4.7-4.7,7-10.3,7-17v-47.3c0-0.9,0.3-1.6,0.9-2.2c0.6-0.6,1.3-0.9,2.2-0.9
			c0.8,0,1.6,0.3,2.2,0.9c0.6,0.6,0.9,1.3,0.9,2.2V256.8z"/>
		<path d="M397.7,287c-0.9,0-1.6-0.3-2.2-0.9c-0.6-0.6-0.9-1.3-0.9-2.2v-29.6c0-0.9,0.3-1.6,0.9-2.2c0.6-0.6,1.3-0.9,2.2-0.9h28.6
			c5.3,0,9.8-1.9,13.6-5.6c3.8-3.8,5.6-8.3,5.6-13.6c0-5.3-1.9-9.9-5.6-13.6c-3.8-3.8-8.3-5.6-13.6-5.6h-28.6
			c-0.9,0-1.6-0.3-2.2-0.9c-0.6-0.6-0.9-1.3-0.9-2.2c0-0.9,0.3-1.6,0.9-2.2c0.6-0.6,1.3-0.9,2.2-0.9h28.6c7,0,13,2.5,18,7.4
			c5,5,7.5,11,7.5,18c0,6.5-2.2,12.2-6.5,17c-4.4,4.8-9.7,7.6-16.1,8.3l22.7,24.6c0.6,0.6,0.8,1.3,0.8,2.2s-0.4,1.6-1,2.1
			s-1.3,0.8-2.1,0.8c-0.9,0-1.7-0.3-2.3-1l-26.4-28.6h-20.1v26.5c0,0.9-0.3,1.6-0.9,2.2C399.3,286.7,398.5,287,397.7,287z"/>
		<path d="M520.5,206.4c0.8,0,1.6,0.3,2.2,0.9c0.6,0.6,0.9,1.3,0.9,2.2c0,0.9-0.3,1.6-0.9,2.2c-0.6,0.6-1.4,0.9-2.2,0.9h-51.2
			c-0.9,0-1.6-0.3-2.2-0.9c-0.6-0.6-0.9-1.3-0.9-2.2c0-0.9,0.3-1.6,0.9-2.2c0.6-0.6,1.3-0.9,2.2-0.9H520.5z M520.5,243.6
			c0.8,0,1.6,0.3,2.2,0.9c0.6,0.6,0.9,1.3,0.9,2.2c0,0.9-0.3,1.6-0.9,2.2c-0.6,0.6-1.4,0.9-2.2,0.9h-51.2c-0.9,0-1.6-0.3-2.2-0.9
			c-0.6-0.6-0.9-1.3-0.9-2.2c0-0.9,0.3-1.6,0.9-2.2c0.6-0.6,1.3-0.9,2.2-0.9H520.5z M523.6,283.9c0,0.9-0.3,1.6-0.9,2.2
			c-0.6,0.6-1.4,0.9-2.2,0.9h-51.2c-0.9,0-1.6-0.3-2.2-0.9c-0.6-0.6-0.9-1.3-0.9-2.2c0-0.9,0.3-1.6,0.9-2.2c0.6-0.6,1.3-0.9,2.2-0.9
			h51.2c0.8,0,1.6,0.3,2.2,0.9C523.3,282.3,523.6,283.1,523.6,283.9z"/>
		<path d="M540.3,287c-0.9,0-1.6-0.3-2.2-0.9c-0.6-0.6-0.9-1.3-0.9-2.2v-74.4c0-1.5,0.7-2.5,2.1-3c1.5-0.5,2.6-0.1,3.5,1.2
			l31.6,44.5l31.6-44.5c0.9-1.2,2.1-1.6,3.5-1.2c1.4,0.5,2.1,1.5,2.1,3v74.4c0,0.9-0.3,1.6-0.9,2.2c-0.6,0.6-1.3,0.9-2.2,0.9
			c-0.9,0-1.6-0.3-2.2-0.9c-0.6-0.6-0.9-1.3-0.9-2.2v-64.7l-28.5,40.1c-0.6,0.9-1.5,1.3-2.5,1.3s-1.9-0.4-2.5-1.3l-28.5-40.1v64.7
			c0,0.9-0.3,1.6-0.9,2.2C541.9,286.7,541.1,287,540.3,287z"/>
		<path d="M696.1,285.6c-0.6,0.9-1.5,1.4-2.6,1.4h-40.3c-0.9,0-1.6-0.3-2.2-0.9c-0.6-0.6-0.9-1.3-0.9-2.2c0-0.9,0.3-1.6,0.9-2.2
			c0.6-0.6,1.3-0.9,2.2-0.9h35.6L661,217.3l-29.7,67.9c-0.6,1.2-1.5,1.9-2.9,1.9c-0.4,0-0.8-0.1-1.2-0.3c-0.8-0.3-1.3-0.9-1.6-1.7
			c-0.3-0.8-0.3-1.6,0.1-2.4l32.5-74.4c0.6-1.2,1.5-1.9,2.9-1.9s2.3,0.6,2.8,1.9l32.6,74.4C696.9,283.7,696.8,284.7,696.1,285.6z"/>
		<path d="M691.2,212.6c-0.9,0-1.6-0.3-2.2-0.9c-0.6-0.6-0.9-1.3-0.9-2.2c0-0.9,0.3-1.6,0.9-2.2c0.6-0.6,1.3-0.9,2.2-0.9h57.4
			c0.8,0,1.6,0.3,2.2,0.9c0.6,0.6,0.9,1.3,0.9,2.2c0,0.9-0.3,1.6-0.9,2.2c-0.6,0.6-1.4,0.9-2.2,0.9H723v71.3c0,0.9-0.3,1.6-0.9,2.2
			c-0.6,0.6-1.3,0.9-2.2,0.9c-0.9,0-1.6-0.3-2.2-0.9c-0.6-0.6-0.9-1.3-0.9-2.2v-71.3H691.2z"/>
		<path d="M813.7,285.6c-0.6,0.9-1.5,1.4-2.6,1.4h-40.3c-0.9,0-1.6-0.3-2.2-0.9c-0.6-0.6-0.9-1.3-0.9-2.2c0-0.9,0.3-1.6,0.9-2.2
			c0.6-0.6,1.3-0.9,2.2-0.9h35.6l-27.8-63.6l-29.7,67.9c-0.6,1.2-1.5,1.9-2.9,1.9c-0.4,0-0.8-0.1-1.2-0.3c-0.8-0.3-1.3-0.9-1.6-1.7
			c-0.3-0.8-0.3-1.6,0.1-2.4l32.5-74.4c0.6-1.2,1.5-1.9,2.9-1.9s2.3,0.6,2.8,1.9l32.6,74.4C814.4,283.7,814.4,284.7,813.7,285.6z"/>
		<path d="M831.4,287c-0.9,0-1.6-0.3-2.2-0.9c-0.6-0.6-0.9-1.3-0.9-2.2v-74.4c0-0.9,0.3-1.6,0.9-2.2c0.6-0.6,1.3-0.9,2.2-0.9
			c0.9,0,1.6,0.3,2.2,0.9c0.6,0.6,0.9,1.3,0.9,2.2v37.9l44.4-40.2c0.6-0.6,1.4-0.8,2.3-0.8c0.9,0,1.6,0.4,2.1,1
			c0.6,0.6,0.8,1.4,0.8,2.3c0,0.8-0.4,1.5-1,2.1l-35,31.8l35.3,38.2c0.6,0.6,0.8,1.3,0.8,2.2s-0.4,1.6-1,2.1
			c-0.6,0.6-1.3,0.8-2.1,0.8c-0.9,0-1.7-0.3-2.3-1l-35.3-38.2l-8.9,8.1v28.1c0,0.9-0.3,1.6-0.9,2.2C832.9,286.7,832.2,287,831.4,287
			z"/>
	</g>
	<g>
		<path d="M140.3,311.7c-0.3,0-0.6,0-0.9-0.2c-4.1-1.4-7.1-5.2-8.1-10.5c-0.9-4.6-0.3-10.9,3.1-13.9c1.2-1.1,3.1-1,4.2,0.3
			c1.1,1.2,1,3.1-0.3,4.2c-1,0.9-2,4.3-1.2,8.2c0.3,1.5,1.3,5,4.1,6c1.6,0.5,2.4,2.2,1.9,3.8C142.7,310.9,141.5,311.7,140.3,311.7z"
			/>
		<g>
			<g>
				<g>
					<path d="M236.3,296.2c-0.7,0-1.5-0.3-2-0.8l-72.2-66.2c-1.2-1.1-1.3-3-0.2-4.2c1.1-1.2,3-1.3,4.2-0.2l72.2,66.2
						c1.2,1.1,1.3,3,0.2,4.2C237.9,295.9,237.1,296.2,236.3,296.2z"/>
				</g>
				<g>
					<path d="M164.1,262.2c-0.8,0-1.6-0.3-2.2-1c-1.1-1.2-1-3.1,0.2-4.2l72.2-66.2c1.2-1.1,3.1-1,4.2,0.2c1.1,1.2,1,3.1-0.2,4.2
						l-72.2,66.2C165.6,262,164.9,262.2,164.1,262.2z"/>
				</g>
			</g>
			<g>
				<path d="M236.1,324.8h-137c-1.7,0-3-1.3-3-3V164.5c0-1.7,1.3-3,3-3h137c1.7,0,3,1.3,3,3v17c0,1.7-1.3,3-3,3s-3-1.3-3-3v-14h-131
					v151.3h131v-14.6c0-1.7,1.3-3,3-3s3,1.3,3,3v17.6C239.1,323.5,237.7,324.8,236.1,324.8z"/>
			</g>
		</g>
		<g>
			<path d="M142.8,238.8c-12.7,0-23-10.3-23-23s10.3-23,23-23s23,10.3,23,23S155.4,238.8,142.8,238.8z M142.8,198.8
				c-9.4,0-17,7.6-17,17s7.6,17,17,17s17-7.6,17-17S152.1,198.8,142.8,198.8z"/>
		</g>
		<g>
			<path d="M142.8,293.1c-12.7,0-23-10.3-23-23s10.3-23,23-23s23,10.3,23,23S155.4,293.1,142.8,293.1z M142.8,253.1
				c-9.4,0-17,7.6-17,17s7.6,17,17,17s17-7.6,17-17S152.1,253.1,142.8,253.1z"/>
		</g>
	</g>
	<g>
		<path d="M486.8,306.8c0,0.3,0,0.5,0,0.7c0,0.2-0.1,0.3-0.1,0.5c-0.1,0.1-0.1,0.2-0.2,0.3c-0.1,0.1-0.2,0.1-0.3,0.1h-7.3v22.5
			c0,0.1,0,0.2-0.1,0.3c-0.1,0.1-0.1,0.1-0.3,0.2c-0.1,0-0.3,0.1-0.5,0.1c-0.2,0-0.5,0-0.8,0c-0.3,0-0.6,0-0.8,0
			c-0.2,0-0.4-0.1-0.5-0.1c-0.1,0-0.2-0.1-0.3-0.2c-0.1-0.1-0.1-0.2-0.1-0.3v-22.5h-7.3c-0.1,0-0.2,0-0.3-0.1
			c-0.1-0.1-0.2-0.1-0.2-0.3c-0.1-0.1-0.1-0.3-0.1-0.5c0-0.2,0-0.4,0-0.7c0-0.3,0-0.5,0-0.7c0-0.2,0.1-0.4,0.1-0.5
			c0.1-0.1,0.1-0.2,0.2-0.3s0.2-0.1,0.3-0.1h18c0.1,0,0.2,0,0.3,0.1c0.1,0.1,0.2,0.1,0.2,0.3c0.1,0.1,0.1,0.3,0.1,0.5
			C486.8,306.3,486.8,306.5,486.8,306.8z"/>
		<path d="M509.6,329.7c0,0.4,0,0.7-0.1,0.9c0,0.2-0.1,0.3-0.2,0.4c-0.1,0.1-0.2,0.2-0.4,0.2s-0.4,0.1-0.6,0.2s-0.5,0.1-0.7,0.1
			s-0.5,0.1-0.8,0.1c-0.5,0-1-0.1-1.4-0.2c-0.5-0.1-0.9-0.3-1.3-0.6s-0.7-0.7-0.9-1.2c-0.3-0.5-0.4-1.1-0.5-1.9
			c-0.3,0.6-0.6,1.1-1,1.6c-0.4,0.5-0.9,0.9-1.4,1.3c-0.5,0.4-1.1,0.6-1.8,0.8c-0.6,0.2-1.3,0.3-2.1,0.3c-1.3,0-2.5-0.2-3.4-0.7
			c-0.9-0.5-1.7-1.2-2.3-2c-0.6-0.9-1-1.9-1.3-3.1c-0.3-1.2-0.4-2.5-0.4-3.8c0-1.6,0.2-2.9,0.5-4.2c0.3-1.2,0.9-2.3,1.6-3.2
			c0.7-0.9,1.5-1.6,2.5-2c1-0.5,2.2-0.7,3.5-0.7c0.9,0,1.7,0.1,2.4,0.4s1.4,0.7,2,1.2c0.6,0.5,1,1.2,1.4,2c0.4,0.8,0.6,1.7,0.7,2.8
			c0.2-1,0.4-1.8,0.5-2.5c0.1-0.7,0.2-1.3,0.3-1.8c0.1-0.5,0.1-0.8,0.1-1.1s0.1-0.4,0.1-0.5c0,0,0.1-0.1,0.2-0.1
			c0.1,0,0.2-0.1,0.3-0.1s0.3,0,0.4-0.1s0.4,0,0.6,0c0.3,0,0.6,0,0.8,0s0.4,0.1,0.5,0.1c0.1,0.1,0.2,0.1,0.3,0.2
			c0.1,0.1,0.1,0.2,0.1,0.3c0,0.2,0,0.5-0.1,1c-0.1,0.4-0.2,1-0.3,1.6s-0.3,1.3-0.4,2c-0.2,0.7-0.4,1.4-0.6,2.2s-0.4,1.5-0.6,2.2
			c-0.2,0.7-0.5,1.3-0.7,1.9c0,1.1,0.1,2,0.2,2.7c0.1,0.7,0.3,1.2,0.5,1.6s0.4,0.6,0.7,0.8c0.3,0.1,0.5,0.2,0.8,0.2
			c0.2,0,0.5,0,0.7-0.1s0.4-0.1,0.5-0.1c0.2,0,0.3-0.1,0.4-0.1c0.1,0,0.2-0.1,0.3-0.1c0.1,0,0.1,0,0.2,0.1c0,0,0.1,0.1,0.1,0.2
			c0,0.1,0.1,0.2,0.1,0.4S509.6,329.4,509.6,329.7z M501.8,321.6c0-1.3-0.1-2.3-0.4-3.2c-0.3-0.9-0.6-1.6-1-2.2
			c-0.4-0.6-0.9-1-1.5-1.2c-0.6-0.3-1.1-0.4-1.7-0.4c-0.8,0-1.6,0.2-2.2,0.6s-1.1,0.9-1.5,1.6c-0.4,0.7-0.7,1.4-0.8,2.3
			s-0.3,1.7-0.3,2.6c0,0.9,0.1,1.9,0.2,2.7c0.1,0.9,0.4,1.7,0.7,2.3c0.3,0.7,0.8,1.2,1.4,1.6c0.6,0.4,1.3,0.6,2.2,0.6
			c0.8,0,1.5-0.2,2.1-0.5c0.6-0.4,1.1-0.9,1.5-1.5c0.4-0.6,0.7-1.4,0.9-2.3C501.7,323.6,501.8,322.7,501.8,321.6L501.8,321.6z"/>
		<path d="M538.7,321.5c0,1.6-0.2,3-0.5,4.3c-0.3,1.2-0.9,2.3-1.6,3.2c-0.7,0.9-1.6,1.5-2.6,2s-2.2,0.7-3.6,0.7
			c-0.4,0-0.9,0-1.4-0.1c-0.5-0.1-0.9-0.2-1.4-0.3c-0.4-0.1-0.9-0.3-1.3-0.6c-0.4-0.2-0.8-0.5-1.1-0.8c0,0.3,0,0.7,0.1,1
			c0,0.4,0,0.8,0,1.3v5.8c0,0.1,0,0.2-0.1,0.3c-0.1,0.1-0.1,0.1-0.3,0.2c-0.1,0.1-0.3,0.1-0.5,0.1s-0.5,0-0.8,0c-0.3,0-0.6,0-0.8,0
			s-0.4-0.1-0.5-0.1c-0.1-0.1-0.2-0.1-0.3-0.2c0-0.1-0.1-0.2-0.1-0.3v-16.3c0-1.5,0.2-2.8,0.5-4c0.4-1.2,0.9-2.2,1.6-3.1
			c0.7-0.9,1.6-1.5,2.6-2s2.3-0.7,3.7-0.7c1.3,0,2.5,0.2,3.5,0.6s1.9,1,2.6,1.9s1.2,1.8,1.6,3.1C538.5,318.6,538.7,320,538.7,321.5z
			 M535.2,321.8c0-1-0.1-2-0.3-2.8c-0.2-0.9-0.4-1.6-0.8-2.3c-0.4-0.6-0.9-1.2-1.5-1.5c-0.6-0.4-1.4-0.6-2.2-0.6
			c-0.9,0-1.7,0.2-2.4,0.6c-0.6,0.4-1.1,0.9-1.5,1.6c-0.4,0.7-0.7,1.4-0.9,2.2s-0.3,1.7-0.3,2.6v5.2c0.7,0.7,1.5,1.2,2.3,1.5
			s1.6,0.5,2.5,0.5c0.9,0,1.7-0.2,2.4-0.5c0.6-0.3,1.2-0.8,1.6-1.5c0.4-0.6,0.7-1.4,0.9-2.2C535.1,323.7,535.2,322.8,535.2,321.8z"
			/>
		<path d="M563,329.7c0,0.4,0,0.7-0.1,0.9c0,0.2-0.1,0.3-0.2,0.4c-0.1,0.1-0.2,0.2-0.4,0.2s-0.4,0.1-0.6,0.2s-0.5,0.1-0.7,0.1
			s-0.5,0.1-0.8,0.1c-0.5,0-1-0.1-1.4-0.2c-0.5-0.1-0.9-0.3-1.3-0.6s-0.7-0.7-0.9-1.2c-0.3-0.5-0.4-1.1-0.5-1.9
			c-0.3,0.6-0.6,1.1-1,1.6c-0.4,0.5-0.9,0.9-1.4,1.3c-0.5,0.4-1.1,0.6-1.8,0.8c-0.6,0.2-1.3,0.3-2.1,0.3c-1.3,0-2.5-0.2-3.4-0.7
			c-0.9-0.5-1.7-1.2-2.3-2c-0.6-0.9-1-1.9-1.3-3.1c-0.3-1.2-0.4-2.5-0.4-3.8c0-1.6,0.2-2.9,0.5-4.2c0.3-1.2,0.9-2.3,1.6-3.2
			c0.7-0.9,1.5-1.6,2.5-2c1-0.5,2.2-0.7,3.5-0.7c0.9,0,1.7,0.1,2.4,0.4s1.4,0.7,2,1.2c0.6,0.5,1,1.2,1.4,2c0.4,0.8,0.6,1.7,0.7,2.8
			c0.2-1,0.4-1.8,0.5-2.5c0.1-0.7,0.2-1.3,0.3-1.8c0.1-0.5,0.1-0.8,0.1-1.1s0.1-0.4,0.1-0.5c0,0,0.1-0.1,0.2-0.1
			c0.1,0,0.2-0.1,0.3-0.1s0.3,0,0.4-0.1s0.4,0,0.6,0c0.3,0,0.6,0,0.8,0s0.4,0.1,0.5,0.1c0.1,0.1,0.2,0.1,0.3,0.2
			c0.1,0.1,0.1,0.2,0.1,0.3c0,0.2,0,0.5-0.1,1c-0.1,0.4-0.2,1-0.3,1.6s-0.3,1.3-0.4,2c-0.2,0.7-0.4,1.4-0.6,2.2s-0.4,1.5-0.6,2.2
			c-0.2,0.7-0.5,1.3-0.7,1.9c0,1.1,0.1,2,0.2,2.7c0.1,0.7,0.3,1.2,0.5,1.6s0.4,0.6,0.7,0.8c0.3,0.1,0.5,0.2,0.8,0.2
			c0.2,0,0.5,0,0.7-0.1s0.4-0.1,0.5-0.1c0.2,0,0.3-0.1,0.4-0.1c0.1,0,0.2-0.1,0.3-0.1c0.1,0,0.1,0,0.2,0.1c0,0,0.1,0.1,0.1,0.2
			c0,0.1,0.1,0.2,0.1,0.4S563,329.4,563,329.7z M555.3,321.6c0-1.3-0.1-2.3-0.4-3.2c-0.3-0.9-0.6-1.6-1-2.2c-0.4-0.6-0.9-1-1.5-1.2
			c-0.6-0.3-1.1-0.4-1.7-0.4c-0.8,0-1.6,0.2-2.2,0.6s-1.1,0.9-1.5,1.6c-0.4,0.7-0.7,1.4-0.8,2.3s-0.3,1.7-0.3,2.6
			c0,0.9,0.1,1.9,0.2,2.7c0.1,0.9,0.4,1.7,0.7,2.3c0.3,0.7,0.8,1.2,1.4,1.6c0.6,0.4,1.3,0.6,2.2,0.6c0.8,0,1.5-0.2,2.1-0.5
			c0.6-0.4,1.1-0.9,1.5-1.5c0.4-0.6,0.7-1.4,0.9-2.3C555.2,323.6,555.3,322.7,555.3,321.6L555.3,321.6z"/>
		<path d="M581.2,312.7c0,0.7-0.1,1.5-0.2,2.3c-0.1,0.9-0.3,1.8-0.6,2.7c-0.3,1-0.6,2-0.9,3.1c-0.4,1.1-0.8,2.2-1.3,3.3
			s-1,2.2-1.5,3.3s-1,1.9-1.3,2.5c-0.3,0.6-0.6,1-0.7,1.1c-0.1,0.1-0.3,0.2-0.4,0.3s-0.3,0.1-0.6,0.1c-0.2,0-0.5,0-0.8,0
			c-0.4,0-0.7,0-1,0s-0.5-0.1-0.6-0.1c-0.2-0.1-0.3-0.1-0.4-0.2c-0.1-0.1-0.1-0.2-0.2-0.3l-5.9-17.1c-0.1-0.1-0.1-0.3-0.1-0.5
			s-0.1-0.3-0.1-0.4c0-0.1,0-0.2,0.1-0.3c0.1-0.1,0.1-0.1,0.3-0.2c0.1,0,0.3-0.1,0.5-0.1s0.5,0,0.8,0c0.4,0,0.7,0,0.9,0
			c0.2,0,0.4,0.1,0.6,0.1c0.1,0.1,0.2,0.1,0.3,0.2c0.1,0.1,0.1,0.2,0.1,0.3l4.9,15l0,0.3l0.1-0.3c0.7-1.3,1.3-2.6,1.9-3.9
			c0.6-1.4,1-2.7,1.4-4c0.4-1.3,0.7-2.6,0.9-3.8c0.2-1.2,0.3-2.3,0.3-3.3c0-0.1,0-0.2,0.1-0.3c0.1-0.1,0.1-0.1,0.3-0.2
			c0.1-0.1,0.3-0.1,0.5-0.1c0.2,0,0.5,0,0.9,0c0.3,0,0.6,0,0.8,0s0.4,0,0.5,0.1c0.1,0.1,0.2,0.1,0.3,0.2
			C581.2,312.5,581.2,312.6,581.2,312.7z"/>
		<path d="M598.1,313.6c0,0.5-0.1,0.8-0.2,1.1c-0.1,0.2-0.3,0.3-0.5,0.3h-6.2c-0.1,0.8-0.1,1.7-0.1,2.7s-0.1,1.9-0.1,2.8
			c0,1.6,0,2.9,0.1,4c0.1,1,0.2,1.9,0.4,2.5c0.2,0.6,0.4,1,0.7,1.3c0.3,0.2,0.7,0.4,1.1,0.4c0.7,0,1.2-0.1,1.6-0.2
			c0.4-0.1,0.6-0.2,0.8-0.2c0.1,0,0.1,0,0.2,0.1c0.1,0,0.1,0.1,0.1,0.2c0,0.1,0.1,0.2,0.1,0.4c0,0.2,0,0.4,0,0.6
			c0,0.4,0,0.7-0.1,0.9c-0.1,0.2-0.1,0.4-0.3,0.5c-0.1,0.1-0.2,0.1-0.4,0.2c-0.2,0.1-0.4,0.1-0.7,0.2c-0.3,0.1-0.6,0.1-0.9,0.2
			c-0.3,0-0.7,0.1-1,0.1c-0.6,0-1.1-0.1-1.6-0.2c-0.5-0.1-0.9-0.3-1.3-0.6c-0.4-0.3-0.7-0.6-1-1.1s-0.5-1.1-0.7-1.8
			c-0.2-0.7-0.3-1.6-0.4-2.5c-0.1-1-0.1-2.1-0.1-3.5c0-0.4,0-0.9,0-1.4c0-0.5,0-1.1,0.1-1.7c0-0.6,0.1-1.2,0.1-1.9
			c0-0.6,0.1-1.3,0.1-1.9h-4.8c-0.2,0-0.4-0.1-0.5-0.3s-0.2-0.6-0.2-1.1c0-0.2,0-0.5,0-0.6c0-0.2,0.1-0.3,0.1-0.5s0.1-0.2,0.2-0.3
			c0.1-0.1,0.2-0.1,0.3-0.1h14.2c0.1,0,0.2,0,0.3,0.1c0.1,0.1,0.1,0.1,0.2,0.3c0.1,0.1,0.1,0.3,0.1,0.5
			C598.1,313.1,598.1,313.3,598.1,313.6z"/>
		<path d="M615.1,328.5c0,0.2,0,0.4,0,0.6c0,0.2,0,0.3-0.1,0.4c0,0.1-0.1,0.2-0.1,0.3s-0.1,0.2-0.3,0.3c-0.1,0.1-0.4,0.3-0.9,0.5
			c-0.5,0.2-1,0.4-1.6,0.6c-0.6,0.2-1.3,0.3-2,0.4c-0.7,0.1-1.4,0.1-2,0.1c-1.3,0-2.5-0.1-3.5-0.4c-1-0.3-1.8-0.7-2.5-1.2
			c-0.7-0.5-1.2-1.1-1.5-1.8c-0.3-0.7-0.5-1.4-0.5-2.2c0-0.6,0.1-1.1,0.3-1.6c0.2-0.5,0.4-1,0.8-1.4c0.3-0.4,0.7-0.8,1.2-1.1
			s1-0.6,1.6-0.8c-0.6-0.3-1.1-0.5-1.5-0.8s-0.7-0.6-0.9-0.9c-0.2-0.3-0.4-0.7-0.5-1.1c-0.1-0.4-0.2-0.8-0.2-1.3
			c0-0.8,0.2-1.5,0.5-2.1c0.3-0.7,0.8-1.2,1.5-1.7s1.4-0.9,2.4-1.1c0.9-0.3,2-0.4,3.2-0.4c0.7,0,1.3,0.1,2,0.2
			c0.7,0.1,1.3,0.2,1.8,0.4c0.6,0.2,1.1,0.3,1.5,0.5s0.7,0.3,0.8,0.5c0.1,0.1,0.2,0.2,0.3,0.3c0,0.1,0.1,0.2,0.1,0.3
			c0,0.1,0.1,0.3,0.1,0.4c0,0.2,0,0.4,0,0.6c0,0.2,0,0.4,0,0.6c0,0.2-0.1,0.3-0.1,0.4c0,0.1-0.1,0.2-0.2,0.2c-0.1,0-0.1,0.1-0.2,0.1
			c-0.1,0-0.4-0.1-0.7-0.3c-0.3-0.2-0.7-0.4-1.3-0.6c-0.5-0.2-1.1-0.4-1.8-0.6c-0.7-0.2-1.5-0.3-2.3-0.3c-0.7,0-1.3,0.1-1.8,0.2
			s-0.9,0.4-1.3,0.6c-0.3,0.3-0.6,0.6-0.7,0.9c-0.2,0.3-0.2,0.7-0.2,1.1c0,0.4,0.1,0.8,0.3,1.1c0.2,0.3,0.5,0.6,0.9,0.9
			c0.4,0.2,0.8,0.4,1.3,0.6s1.1,0.2,1.7,0.2h3.4c0.1,0,0.2,0,0.3,0.1s0.2,0.1,0.2,0.2c0.1,0.1,0.1,0.2,0.1,0.4c0,0.2,0,0.4,0,0.6
			c0,0.2,0,0.4,0,0.6c0,0.2-0.1,0.3-0.1,0.4c-0.1,0.1-0.1,0.2-0.2,0.2s-0.2,0.1-0.3,0.1h-3.7c-0.8,0-1.4,0.1-2,0.2
			c-0.6,0.2-1,0.4-1.4,0.7c-0.4,0.3-0.6,0.6-0.8,1s-0.3,0.8-0.3,1.3c0,0.5,0.1,0.9,0.3,1.3c0.2,0.4,0.5,0.7,0.9,1
			c0.4,0.3,0.9,0.5,1.5,0.7s1.4,0.2,2.2,0.2c0.8,0,1.6-0.1,2.3-0.3c0.7-0.2,1.3-0.4,1.8-0.6c0.5-0.2,0.9-0.4,1.2-0.6
			c0.3-0.2,0.5-0.3,0.7-0.3c0.1,0,0.2,0,0.2,0.1c0.1,0,0.1,0.1,0.2,0.2c0,0.1,0.1,0.2,0.1,0.4C615.1,328.1,615.1,328.3,615.1,328.5z
			"/>
		<path d="M637,323.1c0,1.2-0.2,2.3-0.5,3.3c-0.3,1-0.8,1.9-1.5,2.7c-0.7,0.8-1.6,1.4-2.7,1.8c-1.1,0.4-2.4,0.7-3.9,0.7
			c-0.5,0-1,0-1.5-0.1c-0.5-0.1-0.9-0.2-1.4-0.3c-0.4-0.1-0.8-0.3-1.2-0.5c-0.4-0.2-0.7-0.4-1-0.7c0,0.4,0.1,0.8,0.1,1.3
			c0,0.4,0,0.9,0,1.3v5.3c0,0.1,0,0.2-0.1,0.3c-0.1,0.1-0.1,0.1-0.3,0.2c-0.1,0.1-0.3,0.1-0.5,0.1s-0.5,0-0.8,0c-0.3,0-0.6,0-0.8,0
			c-0.2,0-0.4-0.1-0.5-0.1c-0.1-0.1-0.2-0.1-0.3-0.2c0-0.1-0.1-0.2-0.1-0.3v-26.2c0-1.4,0.2-2.6,0.6-3.6c0.4-1.1,0.9-2,1.6-2.7
			c0.7-0.7,1.5-1.3,2.5-1.7c1-0.4,2-0.6,3.2-0.6c1.2,0,2.3,0.2,3.2,0.6c0.9,0.4,1.6,0.9,2.2,1.5c0.6,0.6,1,1.3,1.3,2.1
			c0.3,0.8,0.4,1.6,0.4,2.5c0,1.4-0.3,2.7-1,3.7c-0.6,1.1-1.6,1.8-2.8,2.3c0.9,0.1,1.7,0.4,2.4,0.8c0.7,0.4,1.3,1,1.8,1.6
			c0.5,0.6,0.8,1.4,1.1,2.2S637,322.2,637,323.1z M633.4,323.3c0-0.8-0.1-1.5-0.3-2.2c-0.2-0.7-0.5-1.2-0.9-1.7
			c-0.4-0.5-1-0.9-1.6-1.1c-0.7-0.3-1.5-0.4-2.5-0.4h-1.7c-0.2,0-0.4-0.1-0.5-0.3c-0.1-0.2-0.2-0.6-0.2-1c0-0.2,0-0.4,0-0.6
			c0-0.2,0.1-0.3,0.1-0.4s0.1-0.2,0.2-0.2c0.1-0.1,0.2-0.1,0.3-0.1h0.4c0.9,0,1.6-0.1,2.3-0.4c0.6-0.3,1.1-0.6,1.5-1.1
			c0.4-0.5,0.7-1,0.8-1.6c0.2-0.6,0.3-1.2,0.3-1.9c0-0.6-0.1-1.1-0.2-1.6c-0.1-0.5-0.4-1-0.7-1.4s-0.7-0.7-1.2-0.9
			c-0.5-0.2-1.1-0.3-1.8-0.3c-0.7,0-1.4,0.1-1.9,0.4c-0.5,0.3-1,0.7-1.4,1.2c-0.4,0.5-0.6,1.1-0.8,1.8c-0.2,0.7-0.3,1.5-0.3,2.4V327
			c0.7,0.6,1.5,1.1,2.3,1.4c0.8,0.3,1.6,0.4,2.4,0.4c0.9,0,1.7-0.1,2.4-0.4c0.7-0.3,1.2-0.6,1.6-1.1c0.4-0.5,0.7-1,0.9-1.7
			S633.4,324.1,633.4,323.3z"/>
		<path d="M658.8,321.5c0,1.5-0.2,2.8-0.6,4.1c-0.4,1.2-1,2.3-1.7,3.2c-0.8,0.9-1.7,1.6-2.9,2.1c-1.2,0.5-2.5,0.8-4,0.8
			c-1.5,0-2.8-0.2-3.9-0.7s-2-1.1-2.8-1.9c-0.7-0.8-1.3-1.9-1.6-3.1c-0.4-1.2-0.5-2.6-0.5-4.1c0-1.5,0.2-2.8,0.6-4.1
			c0.4-1.2,1-2.3,1.7-3.2c0.8-0.9,1.7-1.6,2.9-2.1c1.1-0.5,2.5-0.7,4-0.7c1.5,0,2.8,0.2,3.9,0.7c1.1,0.4,2,1.1,2.8,1.9
			c0.7,0.8,1.3,1.9,1.7,3.1S658.8,320,658.8,321.5z M655.4,321.7c0-1-0.1-1.9-0.3-2.8c-0.2-0.9-0.5-1.6-0.9-2.3s-1-1.2-1.7-1.6
			s-1.6-0.6-2.7-0.6c-1,0-1.8,0.2-2.5,0.5c-0.7,0.3-1.3,0.8-1.8,1.5c-0.5,0.6-0.8,1.4-1,2.3s-0.3,1.8-0.3,2.8c0,1,0.1,1.9,0.3,2.8
			c0.2,0.9,0.5,1.6,0.9,2.3c0.4,0.6,1,1.2,1.7,1.5s1.6,0.6,2.7,0.6c1,0,1.8-0.2,2.5-0.5c0.7-0.3,1.3-0.8,1.8-1.5
			c0.5-0.6,0.8-1.4,1-2.2C655.2,323.7,655.4,322.8,655.4,321.7z"/>
		<path d="M679.6,320.9c0,1.6-0.2,3.1-0.6,4.5c-0.4,1.3-0.9,2.4-1.7,3.4c-0.7,0.9-1.6,1.6-2.7,2.1c-1.1,0.5-2.3,0.8-3.7,0.8
			c-1.4,0-2.6-0.2-3.5-0.6s-1.7-1-2.3-1.7s-1-1.6-1.3-2.6s-0.4-2.2-0.4-3.4c0-0.6,0-1.2,0-1.8c0-0.6,0-1.2,0.1-1.8
			c0-0.6,0-1.2,0.1-1.8c0-0.6,0-1.2,0-1.8c0-0.2,0-0.4,0-0.7c0-0.3,0-0.6,0-1c0-0.4-0.1-0.7-0.1-1.1s0-0.6,0-0.7
			c0-0.1,0-0.2,0.1-0.3c0-0.1,0.1-0.1,0.3-0.2c0.1-0.1,0.3-0.1,0.5-0.1c0.2,0,0.4,0,0.7,0c0.3,0,0.6,0,0.8,0s0.4,0.1,0.5,0.1
			c0.1,0.1,0.2,0.1,0.3,0.2c0.1,0.1,0.1,0.2,0.1,0.3c0.1,0.6,0.2,1.2,0.2,1.8c0,0.6,0.1,1.1,0.1,1.4c0,1.2,0,2.4-0.1,3.5
			c-0.1,1.1-0.1,2.3-0.1,3.5c0,1,0.1,1.8,0.3,2.6c0.2,0.7,0.4,1.3,0.8,1.8c0.4,0.5,0.8,0.9,1.3,1.1c0.5,0.2,1.2,0.4,1.9,0.4
			c0.8,0,1.5-0.1,2.2-0.4c0.6-0.3,1.2-0.8,1.6-1.4c0.4-0.6,0.8-1.4,1-2.4c0.2-1,0.4-2.1,0.4-3.5c0-0.7,0-1.3-0.1-2
			c0-0.7-0.1-1.4-0.2-2.1c-0.1-0.7-0.2-1.4-0.3-2.1s-0.2-1.4-0.4-2c0-0.1,0-0.2,0-0.3c0-0.1,0.1-0.2,0.3-0.2
			c0.1-0.1,0.3-0.1,0.5-0.1c0.2,0,0.5,0,0.8,0s0.6,0,0.8,0s0.4,0.1,0.5,0.1c0.1,0.1,0.2,0.1,0.3,0.2c0.1,0.1,0.1,0.2,0.1,0.3
			c0.1,0.6,0.2,1.3,0.3,2c0.1,0.7,0.2,1.4,0.3,2.1c0.1,0.7,0.1,1.4,0.2,2.1C679.5,319.6,679.6,320.2,679.6,320.9z M672.7,308.9
			c0,0.1-0.1,0.2-0.2,0.2c-0.1,0.1-0.2,0.1-0.3,0.1s-0.3,0.1-0.5,0.1c-0.2,0-0.4,0-0.7,0c-0.4,0-0.7,0-0.9-0.2
			c-0.2-0.1-0.3-0.3-0.2-0.5l1.6-5.7c0.1-0.3,0.3-0.5,0.5-0.6c0.3-0.1,0.7-0.2,1.4-0.2c0.3,0,0.6,0,0.8,0s0.4,0.1,0.5,0.1
			c0.1,0.1,0.2,0.1,0.2,0.2c0,0.1,0,0.2,0,0.3L672.7,308.9z"/>
		<path d="M713.8,329.5c0,0.4,0,0.7-0.1,0.9c-0.1,0.2-0.1,0.4-0.2,0.5s-0.2,0.2-0.4,0.2c-0.2,0.1-0.4,0.1-0.6,0.2
			c-0.2,0.1-0.5,0.1-0.8,0.1c-0.3,0-0.6,0.1-0.9,0.1c-0.6,0-1.2-0.1-1.8-0.2c-0.5-0.1-1-0.4-1.4-0.8s-0.8-1-1-1.7
			c-0.3-0.7-0.5-1.7-0.6-2.9s-0.2-2.7-0.2-4.5c0-1.8,0.1-3.9,0.3-6.4h-6.4c0,2.2,0,4.1-0.1,5.8c-0.1,1.7-0.3,3.2-0.5,4.5
			s-0.4,2.3-0.7,3.2c-0.3,0.9-0.5,1.4-0.6,1.7c-0.1,0.3-0.2,0.5-0.3,0.6c-0.1,0.1-0.1,0.2-0.2,0.3c-0.1,0.1-0.1,0.1-0.2,0.2
			c-0.1,0-0.2,0.1-0.3,0.1s-0.3,0-0.5,0c-0.2,0-0.4,0-0.6,0c-0.4,0-0.7,0-0.9,0c-0.2,0-0.4-0.1-0.5-0.1c-0.1,0-0.2-0.1-0.2-0.2
			s-0.1-0.1-0.1-0.2c0-0.1,0-0.3,0.2-0.6c0.1-0.3,0.2-0.6,0.4-1c0.2-0.4,0.4-1,0.6-1.8c0.3-0.9,0.5-1.9,0.7-3s0.4-2.5,0.5-4.1
			c0.1-1.5,0.2-3.4,0.2-5.4h-3c-0.2,0-0.4-0.1-0.5-0.4s-0.2-0.6-0.2-1.1c0-0.2,0-0.5,0-0.6c0-0.2,0.1-0.3,0.1-0.4
			c0.1-0.1,0.1-0.2,0.2-0.3c0.1-0.1,0.2-0.1,0.3-0.1h18.7c0.1,0,0.2,0,0.3,0.1c0.1,0.1,0.2,0.1,0.2,0.3c0.1,0.1,0.1,0.3,0.1,0.4
			c0,0.2,0,0.4,0,0.6c0,0.5-0.1,0.8-0.2,1.1s-0.3,0.4-0.5,0.4h-3c-0.1,2.2-0.2,4-0.2,5.5c0,1.5,0,2.8,0.1,3.8c0.1,1,0.2,1.8,0.3,2.4
			c0.1,0.6,0.3,1,0.5,1.3c0.2,0.3,0.4,0.5,0.6,0.6s0.4,0.1,0.7,0.1c0.4,0,0.8-0.1,1.2-0.2c0.4-0.1,0.7-0.2,0.8-0.2
			c0.1,0,0.1,0,0.2,0.1c0,0,0.1,0.1,0.1,0.2c0,0.1,0.1,0.2,0.1,0.4C713.8,329.1,713.8,329.3,713.8,329.5z"/>
		<path d="M733.6,329.9c0,0.2,0,0.4,0,0.5c0,0.1,0,0.3-0.1,0.4c0,0.1,0,0.2-0.1,0.2c0,0.1-0.1,0.1-0.1,0.2c-0.1,0.1-0.1,0.1-0.3,0.2
			c-0.1,0-0.3,0.1-0.4,0.1c-0.2,0-0.3,0.1-0.5,0.1s-0.3,0-0.5,0c-0.6,0-1.1-0.1-1.6-0.2c-0.5-0.1-0.9-0.3-1.2-0.7
			c-0.3-0.3-0.7-0.7-0.9-1.3c-0.3-0.5-0.5-1.2-0.8-2.1l-3.3-11l-4.9,14.2c-0.1,0.2-0.1,0.3-0.2,0.4s-0.2,0.2-0.3,0.2
			c-0.1,0.1-0.3,0.1-0.6,0.1s-0.6,0-0.9,0c-0.4,0-0.7,0-1,0c-0.2,0-0.4-0.1-0.5-0.2c-0.1-0.1-0.2-0.2-0.1-0.4c0-0.2,0.1-0.4,0.2-0.7
			l7-18.2l-0.5-1.6c-0.6-1.9-1.1-3.1-1.5-3.6c-0.4-0.5-0.9-0.7-1.7-0.7c-0.4,0-0.8,0.1-1.2,0.2c-0.4,0.1-0.7,0.2-0.8,0.2
			c-0.1,0-0.1,0-0.2,0c0,0-0.1-0.1-0.1-0.2c0-0.1-0.1-0.2-0.1-0.3c0-0.1,0-0.3,0-0.6c0-0.4,0-0.7,0.1-0.9c0-0.2,0.1-0.4,0.2-0.5
			c0.1-0.1,0.2-0.2,0.4-0.3c0.2-0.1,0.4-0.1,0.7-0.2c0.3-0.1,0.6-0.1,0.8-0.1c0.2,0,0.5,0,0.7,0c0.7,0,1.4,0.1,1.9,0.2
			c0.6,0.2,1.1,0.5,1.6,0.9c0.5,0.5,0.9,1.1,1.3,1.9c0.4,0.8,0.8,1.9,1.2,3.2l5.3,17.1c0.1,0.5,0.3,0.8,0.4,1.1
			c0.1,0.3,0.3,0.5,0.4,0.7c0.1,0.2,0.3,0.3,0.5,0.3c0.2,0.1,0.4,0.1,0.6,0.1c0.2,0,0.3,0,0.4,0s0.2,0,0.3,0s0.2,0,0.2,0
			c0.1,0,0.1,0.1,0.2,0.2c0,0.1,0.1,0.2,0.1,0.4C733.6,329.4,733.6,329.6,733.6,329.9z"/>
		<path d="M750.5,328.5c0,0.2,0,0.4,0,0.6c0,0.2,0,0.3-0.1,0.4c0,0.1-0.1,0.2-0.1,0.3s-0.1,0.2-0.3,0.3c-0.1,0.1-0.4,0.3-0.9,0.5
			c-0.5,0.2-1,0.4-1.6,0.6c-0.6,0.2-1.3,0.3-2,0.4c-0.7,0.1-1.4,0.1-2,0.1c-1.3,0-2.5-0.1-3.5-0.4c-1-0.3-1.8-0.7-2.5-1.2
			c-0.7-0.5-1.2-1.1-1.5-1.8c-0.3-0.7-0.5-1.4-0.5-2.2c0-0.6,0.1-1.1,0.3-1.6c0.2-0.5,0.4-1,0.8-1.4c0.3-0.4,0.7-0.8,1.2-1.1
			s1-0.6,1.6-0.8c-0.6-0.3-1.1-0.5-1.5-0.8s-0.7-0.6-0.9-0.9c-0.2-0.3-0.4-0.7-0.5-1.1c-0.1-0.4-0.2-0.8-0.2-1.3
			c0-0.8,0.2-1.5,0.5-2.1c0.3-0.7,0.8-1.2,1.5-1.7s1.4-0.9,2.4-1.1c0.9-0.3,2-0.4,3.2-0.4c0.7,0,1.3,0.1,2,0.2
			c0.7,0.1,1.3,0.2,1.8,0.4c0.6,0.2,1.1,0.3,1.5,0.5s0.7,0.3,0.8,0.5c0.1,0.1,0.2,0.2,0.3,0.3c0,0.1,0.1,0.2,0.1,0.3
			c0,0.1,0.1,0.3,0.1,0.4c0,0.2,0,0.4,0,0.6c0,0.2,0,0.4,0,0.6c0,0.2-0.1,0.3-0.1,0.4c0,0.1-0.1,0.2-0.2,0.2c-0.1,0-0.1,0.1-0.2,0.1
			c-0.1,0-0.4-0.1-0.7-0.3c-0.3-0.2-0.7-0.4-1.3-0.6c-0.5-0.2-1.1-0.4-1.8-0.6c-0.7-0.2-1.5-0.3-2.3-0.3c-0.7,0-1.3,0.1-1.8,0.2
			s-0.9,0.4-1.3,0.6c-0.3,0.3-0.6,0.6-0.7,0.9c-0.2,0.3-0.2,0.7-0.2,1.1c0,0.4,0.1,0.8,0.3,1.1c0.2,0.3,0.5,0.6,0.9,0.9
			c0.4,0.2,0.8,0.4,1.3,0.6s1.1,0.2,1.7,0.2h3.4c0.1,0,0.2,0,0.3,0.1s0.2,0.1,0.2,0.2c0.1,0.1,0.1,0.2,0.1,0.4c0,0.2,0,0.4,0,0.6
			c0,0.2,0,0.4,0,0.6c0,0.2-0.1,0.3-0.1,0.4c-0.1,0.1-0.1,0.2-0.2,0.2s-0.2,0.1-0.3,0.1h-3.7c-0.8,0-1.4,0.1-2,0.2
			c-0.6,0.2-1,0.4-1.4,0.7c-0.4,0.3-0.6,0.6-0.8,1s-0.3,0.8-0.3,1.3c0,0.5,0.1,0.9,0.3,1.3c0.2,0.4,0.5,0.7,0.9,1
			c0.4,0.3,0.9,0.5,1.5,0.7s1.4,0.2,2.2,0.2c0.8,0,1.6-0.1,2.3-0.3c0.7-0.2,1.3-0.4,1.8-0.6c0.5-0.2,0.9-0.4,1.2-0.6
			c0.3-0.2,0.5-0.3,0.7-0.3c0.1,0,0.2,0,0.2,0.1c0.1,0,0.1,0.1,0.2,0.2c0,0.1,0.1,0.2,0.1,0.4C750.4,328.1,750.5,328.3,750.5,328.5z
			 M744.9,308.9c0,0.1-0.1,0.2-0.2,0.2s-0.2,0.1-0.3,0.1s-0.3,0.1-0.5,0.1c-0.2,0-0.4,0-0.7,0c-0.4,0-0.7,0-0.9-0.2
			c-0.2-0.1-0.3-0.3-0.2-0.5l1.6-5.7c0.1-0.3,0.3-0.5,0.5-0.6c0.3-0.1,0.7-0.2,1.4-0.2c0.3,0,0.6,0,0.8,0s0.4,0.1,0.5,0.1
			c0.1,0.1,0.2,0.1,0.2,0.2c0,0.1,0,0.2,0,0.3L744.9,308.9z"/>
		<path d="M772.3,321.5c0,1.5-0.2,2.8-0.6,4.1c-0.4,1.2-1,2.3-1.7,3.2c-0.8,0.9-1.7,1.6-2.9,2.1c-1.2,0.5-2.5,0.8-4,0.8
			c-1.5,0-2.8-0.2-3.9-0.7s-2-1.1-2.8-1.9c-0.7-0.8-1.3-1.9-1.6-3.1c-0.4-1.2-0.5-2.6-0.5-4.1c0-1.5,0.2-2.8,0.6-4.1
			c0.4-1.2,1-2.3,1.7-3.2c0.8-0.9,1.7-1.6,2.9-2.1c1.1-0.5,2.5-0.7,4-0.7c1.5,0,2.8,0.2,3.9,0.7c1.1,0.4,2,1.1,2.8,1.9
			c0.7,0.8,1.3,1.9,1.7,3.1S772.3,320,772.3,321.5z M768.9,321.7c0-1-0.1-1.9-0.3-2.8c-0.2-0.9-0.5-1.6-0.9-2.3s-1-1.2-1.7-1.6
			s-1.6-0.6-2.7-0.6c-1,0-1.8,0.2-2.5,0.5c-0.7,0.3-1.3,0.8-1.8,1.5c-0.5,0.6-0.8,1.4-1,2.3s-0.3,1.8-0.3,2.8c0,1,0.1,1.9,0.3,2.8
			c0.2,0.9,0.5,1.6,0.9,2.3c0.4,0.6,1,1.2,1.7,1.5s1.6,0.6,2.7,0.6c1,0,1.8-0.2,2.5-0.5c0.7-0.3,1.3-0.8,1.8-1.5
			c0.5-0.6,0.8-1.4,1-2.2C768.8,323.7,768.9,322.8,768.9,321.7z"/>
		<path d="M791.5,312.7c0,0.7-0.1,1.5-0.2,2.3c-0.1,0.9-0.3,1.8-0.6,2.7c-0.3,1-0.6,2-0.9,3.1c-0.4,1.1-0.8,2.2-1.3,3.3
			s-1,2.2-1.5,3.3s-1,1.9-1.3,2.5c-0.3,0.6-0.6,1-0.7,1.1c-0.1,0.1-0.3,0.2-0.4,0.3s-0.3,0.1-0.6,0.1c-0.2,0-0.5,0-0.8,0
			c-0.4,0-0.7,0-1,0s-0.5-0.1-0.6-0.1c-0.2-0.1-0.3-0.1-0.4-0.2c-0.1-0.1-0.1-0.2-0.2-0.3l-5.9-17.1c-0.1-0.1-0.1-0.3-0.1-0.5
			s-0.1-0.3-0.1-0.4c0-0.1,0-0.2,0.1-0.3c0.1-0.1,0.1-0.1,0.3-0.2c0.1,0,0.3-0.1,0.5-0.1s0.5,0,0.8,0c0.4,0,0.7,0,0.9,0
			c0.2,0,0.4,0.1,0.6,0.1c0.1,0.1,0.2,0.1,0.3,0.2c0.1,0.1,0.1,0.2,0.1,0.3l4.9,15l0,0.3l0.1-0.3c0.7-1.3,1.3-2.6,1.9-3.9
			c0.6-1.4,1-2.7,1.4-4c0.4-1.3,0.7-2.6,0.9-3.8c0.2-1.2,0.3-2.3,0.3-3.3c0-0.1,0-0.2,0.1-0.3c0.1-0.1,0.1-0.1,0.3-0.2
			c0.1-0.1,0.3-0.1,0.5-0.1c0.2,0,0.5,0,0.9,0c0.3,0,0.6,0,0.8,0s0.4,0,0.5,0.1c0.1,0.1,0.2,0.1,0.3,0.2
			C791.5,312.5,791.5,312.6,791.5,312.7z"/>
		<path d="M821.7,321.5c0,1.5-0.2,2.8-0.6,4.1c-0.4,1.2-1,2.3-1.7,3.2c-0.8,0.9-1.7,1.6-2.9,2.1c-1.2,0.5-2.5,0.8-4,0.8
			c-1.5,0-2.8-0.2-3.9-0.7s-2-1.1-2.8-1.9c-0.7-0.8-1.3-1.9-1.6-3.1c-0.4-1.2-0.5-2.6-0.5-4.1c0-1.5,0.2-2.8,0.6-4.1
			c0.4-1.2,1-2.3,1.7-3.2c0.8-0.9,1.7-1.6,2.9-2.1c1.1-0.5,2.5-0.7,4-0.7c1.5,0,2.8,0.2,3.9,0.7c1.1,0.4,2,1.1,2.8,1.9
			c0.7,0.8,1.3,1.9,1.7,3.1S821.7,320,821.7,321.5z M818.3,321.7c0-1-0.1-1.9-0.3-2.8c-0.2-0.9-0.5-1.6-0.9-2.3s-1-1.2-1.7-1.6
			s-1.6-0.6-2.7-0.6c-1,0-1.8,0.2-2.5,0.5c-0.7,0.3-1.3,0.8-1.8,1.5c-0.5,0.6-0.8,1.4-1,2.3s-0.3,1.8-0.3,2.8c0,1,0.1,1.9,0.3,2.8
			c0.2,0.9,0.5,1.6,0.9,2.3c0.4,0.6,1,1.2,1.7,1.5s1.6,0.6,2.7,0.6c1,0,1.8-0.2,2.5-0.5c0.7-0.3,1.3-0.8,1.8-1.5
			c0.5-0.6,0.8-1.4,1-2.2C818.2,323.7,818.3,322.8,818.3,321.7z"/>
		<path d="M842.1,330.7c0,0.1,0,0.2-0.1,0.3c-0.1,0.1-0.1,0.1-0.3,0.2s-0.3,0.1-0.5,0.1s-0.5,0-0.8,0c-0.3,0-0.6,0-0.8,0
			s-0.4-0.1-0.5-0.1s-0.2-0.1-0.3-0.2c-0.1-0.1-0.1-0.2-0.1-0.3v-10.6c0-1-0.1-1.9-0.2-2.5c-0.2-0.6-0.4-1.2-0.7-1.6
			c-0.3-0.5-0.7-0.8-1.2-1c-0.5-0.2-1.1-0.4-1.7-0.4c-0.8,0-1.7,0.3-2.5,0.9c-0.8,0.6-1.7,1.5-2.6,2.6v12.6c0,0.1,0,0.2-0.1,0.3
			c-0.1,0.1-0.1,0.1-0.3,0.2c-0.1,0.1-0.3,0.1-0.5,0.1s-0.5,0-0.8,0c-0.3,0-0.6,0-0.8,0c-0.2,0-0.4-0.1-0.5-0.1s-0.2-0.1-0.3-0.2
			c0-0.1-0.1-0.2-0.1-0.3v-18c0-0.1,0-0.2,0.1-0.3c0-0.1,0.1-0.1,0.2-0.2c0.1-0.1,0.3-0.1,0.5-0.1c0.2,0,0.4,0,0.7,0
			c0.3,0,0.5,0,0.7,0c0.2,0,0.3,0.1,0.5,0.1c0.1,0.1,0.2,0.1,0.2,0.2c0,0.1,0.1,0.2,0.1,0.3v2.4c1-1.1,2-2,3-2.5s2-0.8,3.1-0.8
			c1.2,0,2.2,0.2,3,0.6s1.5,1,2,1.6c0.5,0.7,0.9,1.5,1.1,2.4s0.3,2,0.3,3.3V330.7z"/>
		<path d="M851.4,330.7c0,0.1,0,0.2-0.1,0.3c-0.1,0.1-0.1,0.1-0.3,0.2c-0.1,0.1-0.3,0.1-0.5,0.1s-0.5,0-0.8,0c-0.3,0-0.6,0-0.8,0
			c-0.2,0-0.4-0.1-0.5-0.1s-0.2-0.1-0.3-0.2c0-0.1-0.1-0.2-0.1-0.3v-26.8c0-0.1,0-0.2,0.1-0.3s0.1-0.1,0.3-0.2s0.3-0.1,0.5-0.1
			c0.2,0,0.5,0,0.8,0c0.3,0,0.6,0,0.8,0c0.2,0,0.4,0.1,0.5,0.1c0.1,0.1,0.2,0.1,0.3,0.2c0.1,0.1,0.1,0.2,0.1,0.3V330.7z"/>
		<path d="M861.2,306.6c0,0.8-0.1,1.3-0.4,1.6s-0.8,0.4-1.6,0.4c-0.8,0-1.3-0.1-1.6-0.4c-0.3-0.3-0.4-0.8-0.4-1.6
			c0-0.8,0.1-1.3,0.4-1.6c0.3-0.3,0.8-0.4,1.6-0.4c0.8,0,1.3,0.1,1.6,0.4C861.1,305.3,861.2,305.8,861.2,306.6z M860.9,330.7
			c0,0.1,0,0.2-0.1,0.3c-0.1,0.1-0.1,0.1-0.3,0.2c-0.1,0.1-0.3,0.1-0.5,0.1s-0.5,0-0.8,0c-0.3,0-0.6,0-0.8,0c-0.2,0-0.4-0.1-0.5-0.1
			s-0.2-0.1-0.3-0.2c0-0.1-0.1-0.2-0.1-0.3v-18c0-0.1,0-0.2,0.1-0.3c0-0.1,0.1-0.1,0.3-0.2c0.1-0.1,0.3-0.1,0.5-0.1
			c0.2,0,0.5,0,0.8,0c0.3,0,0.6,0,0.8,0s0.4,0.1,0.5,0.1c0.1,0.1,0.2,0.1,0.3,0.2c0.1,0.1,0.1,0.2,0.1,0.3V330.7z"/>
		<path d="M882.5,330.7c0,0.1,0,0.2-0.1,0.3c-0.1,0.1-0.1,0.1-0.3,0.2s-0.3,0.1-0.5,0.1s-0.5,0-0.8,0c-0.3,0-0.6,0-0.8,0
			s-0.4-0.1-0.5-0.1s-0.2-0.1-0.3-0.2c-0.1-0.1-0.1-0.2-0.1-0.3v-10.6c0-1-0.1-1.9-0.2-2.5c-0.2-0.6-0.4-1.2-0.7-1.6
			c-0.3-0.5-0.7-0.8-1.2-1c-0.5-0.2-1.1-0.4-1.7-0.4c-0.8,0-1.7,0.3-2.5,0.9c-0.8,0.6-1.7,1.5-2.6,2.6v12.6c0,0.1,0,0.2-0.1,0.3
			c-0.1,0.1-0.1,0.1-0.3,0.2c-0.1,0.1-0.3,0.1-0.5,0.1s-0.5,0-0.8,0c-0.3,0-0.6,0-0.8,0c-0.2,0-0.4-0.1-0.5-0.1s-0.2-0.1-0.3-0.2
			c0-0.1-0.1-0.2-0.1-0.3v-18c0-0.1,0-0.2,0.1-0.3c0-0.1,0.1-0.1,0.2-0.2c0.1-0.1,0.3-0.1,0.5-0.1c0.2,0,0.4,0,0.7,0
			c0.3,0,0.5,0,0.7,0c0.2,0,0.3,0.1,0.5,0.1c0.1,0.1,0.2,0.1,0.2,0.2c0,0.1,0.1,0.2,0.1,0.3v2.4c1-1.1,2-2,3-2.5s2-0.8,3.1-0.8
			c1.2,0,2.2,0.2,3,0.6s1.5,1,2,1.6c0.5,0.7,0.9,1.5,1.1,2.4s0.3,2,0.3,3.3V330.7z"/>
		<path d="M903.9,320.9c0,0.5-0.1,0.9-0.4,1.1c-0.3,0.2-0.6,0.3-0.9,0.3h-11.9c0,1,0.1,1.9,0.3,2.7c0.2,0.8,0.5,1.5,1,2.1
			c0.5,0.6,1.1,1,1.8,1.3s1.7,0.5,2.8,0.5c0.9,0,1.6-0.1,2.3-0.2c0.7-0.1,1.3-0.3,1.7-0.5c0.5-0.2,0.9-0.3,1.2-0.5
			c0.3-0.1,0.6-0.2,0.7-0.2c0.1,0,0.2,0,0.3,0.1s0.1,0.1,0.2,0.2c0,0.1,0.1,0.2,0.1,0.4c0,0.2,0,0.4,0,0.6c0,0.2,0,0.3,0,0.5
			c0,0.1,0,0.2-0.1,0.3c0,0.1-0.1,0.2-0.1,0.3c0,0.1-0.1,0.2-0.2,0.2c-0.1,0.1-0.3,0.2-0.7,0.4c-0.4,0.2-0.8,0.3-1.4,0.5
			c-0.6,0.2-1.2,0.3-2,0.4c-0.8,0.1-1.6,0.2-2.4,0.2c-1.5,0-2.8-0.2-3.9-0.6c-1.1-0.4-2.1-1-2.8-1.8c-0.8-0.8-1.3-1.8-1.7-3.1
			c-0.4-1.2-0.6-2.7-0.6-4.3c0-1.6,0.2-2.9,0.6-4.2c0.4-1.2,1-2.3,1.7-3.1c0.8-0.9,1.7-1.5,2.7-2s2.3-0.7,3.6-0.7
			c1.4,0,2.6,0.2,3.6,0.7c1,0.5,1.8,1.1,2.5,1.8c0.6,0.8,1.1,1.7,1.4,2.7c0.3,1,0.5,2.1,0.5,3.3V320.9z M900.6,319.9
			c0-1.7-0.3-3.1-1.2-4.1c-0.8-1-2-1.5-3.6-1.5c-0.8,0-1.5,0.2-2.2,0.5c-0.6,0.3-1.1,0.7-1.6,1.2c-0.4,0.5-0.7,1.1-1,1.8
			s-0.4,1.4-0.4,2.1H900.6z"/>
	</g>
</g>
</svg>
