<?xml version="1.0" encoding="utf-8"?>
<!-- Generator: Adobe Illustrator 22.1.0, SVG Export Plug-In . SVG Version: 6.00 Build 0)  -->
<svg version="1.1" id="Layer_1" xmlns:x="&ns_extend;" xmlns:i="&ns_ai;" xmlns:graph="&ns_graphs;"
	 xmlns="http://www.w3.org/2000/svg" xmlns:xlink="http://www.w3.org/1999/xlink" x="0px" y="0px" viewBox="0 0 512 512"
	 style="enable-background:new 0 0 512 512;" xml:space="preserve">
<metadata>
	<sfw  xmlns="&ns_sfw;">
		<slices></slices>
		<sliceSourceBounds  bottomLeftOrigin="true" height="308.8" width="319.7" x="96.2" y="-410.4"></sliceSourceBounds>
	</sfw>
</metadata>
<g>
	<g>
		<g>
			<g>
				<g>
					<path d="M361.3,356.4c-1.4,0-2.7-0.5-3.8-1.5L221,229.8c-2.3-2.1-2.5-5.7-0.3-8c2.1-2.3,5.7-2.5,8-0.3l136.4,125.1
						c2.3,2.1,2.5,5.7,0.3,8C364.4,355.7,362.8,356.4,361.3,356.4z"/>
				</g>
				<g>
					<path d="M224.9,292.1c-1.5,0-3.1-0.6-4.2-1.8c-2.1-2.3-2-5.9,0.3-8l136.4-125.1c2.3-2.1,5.9-2,8,0.3c2.1,2.3,2,5.9-0.3,8
						L228.7,290.6C227.6,291.6,226.2,292.1,224.9,292.1z"/>
				</g>
			</g>
			<g>
				<path d="M360.8,410.4h-259c-3.1,0-5.7-2.5-5.7-5.7V107.3c0-3.1,2.5-5.7,5.7-5.7h259c3.1,0,5.7,2.5,5.7,5.7v32.2
					c0,3.1-2.5,5.7-5.7,5.7s-5.7-2.5-5.7-5.7v-26.5H107.5v286.1h247.7v-27.7c0-3.1,2.5-5.7,5.7-5.7s5.7,2.5,5.7,5.7v33.3
					C366.5,407.9,364,410.4,360.8,410.4z"/>
			</g>
		</g>
		<g>
			<path d="M184.5,247.9c-24,0-43.5-19.5-43.5-43.5c0-24,19.5-43.5,43.5-43.5s43.5,19.5,43.5,43.5
				C227.9,228.4,208.4,247.9,184.5,247.9z M184.5,172.3c-17.7,0-32.1,14.4-32.1,32.1c0,17.7,14.4,32.1,32.1,32.1
				s32.1-14.4,32.1-32.1C216.6,186.7,202.2,172.3,184.5,172.3z"/>
		</g>
		<g>
			<path d="M184.5,350.5c-24,0-43.5-19.5-43.5-43.5c0-24,19.5-43.5,43.5-43.5s43.5,19.5,43.5,43.5
				C227.9,330.9,208.4,350.5,184.5,350.5z M184.5,274.8c-17.7,0-32.1,14.4-32.1,32.1s14.4,32.1,32.1,32.1s32.1-14.4,32.1-32.1
				S202.2,274.8,184.5,274.8z"/>
		</g>
		<g>
			<path d="M179.7,385.6c-0.6,0-1.2-0.1-1.8-0.3c-7.8-2.6-13.4-9.8-15.4-19.8c-1.7-8.6-0.6-20.5,5.9-26.2c2.4-2.1,5.9-1.8,8,0.5
				c2.1,2.4,1.8,5.9-0.5,8c-1.9,1.6-3.7,8.1-2.2,15.5c0.6,2.8,2.5,9.5,7.8,11.3c3,1,4.6,4.2,3.6,7.2
				C184.3,384.1,182.1,385.6,179.7,385.6z"/>
		</g>
	</g>
	<g>
		<path d="M319.4,280.4c4.5-9.5,14.1-15.5,22.5-20.7c8.7-5.3,17.4-10,25.2-15.8c7.8-5.6,14.5-12.5,19.3-20.8
			c4.7-8.3,7.3-17.8,9.3-27.9c1.4,10.1,0.7,20.9-3.5,30.8c-4.1,10-11.7,18.3-20.1,24.5c-8.6,6.2-17.9,10.7-27.1,14.8
			C335.8,269.6,326.6,273.1,319.4,280.4z"/>
		<path d="M338.9,287.6c4.5-9.5,14.1-15.5,22.5-20.7c8.7-5.3,17.4-10,25.2-15.8c7.8-5.6,14.5-12.5,19.3-20.8
			c4.7-8.3,7.3-17.8,9.3-27.9c1.4,10.1,0.7,20.9-3.5,30.8c-4.1,10-11.7,18.3-20.1,24.5c-8.6,6.2-17.9,10.7-27.1,14.8
			C355.4,276.8,346.1,280.3,338.9,287.6z"/>
	</g>
</g>
</svg>
